<svg width="693" height="178" viewBox="0 0 693 178" fill="none" xmlns="http://www.w3.org/2000/svg">
<g clip-path="url(#clip0_42_7)">
<rect width="693" height="178" rx="10" fill="#0A1119"/>
<g filter="url(#filter0_df_42_7)">
<circle cx="26.5" cy="262.5" r="178.5" fill="#00FF86"/>
</g>
<g filter="url(#filter1_df_42_7)">
<circle cx="596.5" cy="228.5" r="178.5" fill="#00FF86"/>
</g>
<g filter="url(#filter2_b_42_7)">
<path d="M475 -334C356.258 -334 260 -239.085 260 -122C260 -4.91495 356.258 90 475 90C593.742 90 690 -4.91495 690 -122C690 -239.085 593.742 -334 475 -334Z" fill="white" fill-opacity="0.02"/>
</g>
<g filter="url(#filter3_b_42_7)">
<path d="M717 -102H-198V651.854H717V-102Z" fill="url(#paint0_linear_42_7)" fill-opacity="0.85"/>
</g>
<g filter="url(#filter4_d_42_7)">
<path d="M15.1179 463.366C9.99959 488.249 -20.1354 498.259 -39.1251 481.386L-294.344 254.604C-313.334 237.73 -306.936 206.627 -282.828 198.619L41.1799 90.983C65.2878 82.9743 89.0249 104.067 83.9067 128.949L15.1179 463.366Z" stroke="#00FF86" stroke-width="4" stroke-linejoin="round"/>
</g>
<g filter="url(#filter5_d_42_7)">
<path d="M655.118 39.3661C650 64.2485 619.865 74.2593 600.875 57.3855L345.656 -169.396C326.666 -186.27 333.064 -217.373 357.172 -225.381L681.18 -333.017C705.288 -341.026 729.025 -319.933 723.907 -295.051L655.118 39.3661Z" stroke="#00FF86" stroke-width="4" stroke-linejoin="round"/>
</g>
<path d="M135.602 83V48.9683L127.57 53.9065V44.9821L135.602 40.1629H143.872V83H135.602Z" fill="#00FF86"/>
<path d="M167.914 83.8925C165.752 83.8925 163.72 83.4462 161.816 82.5538C159.932 81.6614 158.306 80.4219 156.937 78.8353C155.569 77.2487 154.587 75.4044 153.992 73.3022L161.786 71.2198C162.044 72.2313 162.5 73.1039 163.154 73.8376C163.829 74.5714 164.602 75.1466 165.475 75.563C166.367 75.9597 167.279 76.158 168.212 76.158C169.441 76.158 170.562 75.8605 171.573 75.2655C172.604 74.6706 173.417 73.8674 174.012 72.856C174.627 71.8445 174.935 70.724 174.935 69.4944C174.935 68.2649 174.627 67.1444 174.012 66.1329C173.417 65.1215 172.604 64.3183 171.573 63.7233C170.562 63.1284 169.441 62.8309 168.212 62.8309C166.704 62.8309 165.475 63.0887 164.523 63.6043C163.571 64.1001 162.857 64.5761 162.381 65.0322L155.539 62.9499L156.848 40.1629H180.23V47.7189H161.31L164.166 45.0416L163.273 59.7371L161.905 58.0712C162.976 57.1986 164.196 56.564 165.564 56.1674C166.932 55.7707 168.212 55.5724 169.402 55.5724C172.099 55.5724 174.469 56.1773 176.511 57.387C178.574 58.5769 180.18 60.223 181.33 62.3252C182.501 64.4075 183.086 66.7973 183.086 69.4944C183.086 72.1916 182.382 74.6309 180.973 76.8124C179.565 78.9741 177.711 80.6995 175.411 81.9886C173.11 83.2578 170.611 83.8925 167.914 83.8925Z" fill="#00FF86"/>
<path d="M196.762 83L191.407 77.6454L228.89 40.1629L234.244 45.5771L196.762 83ZM225.32 83.8925C223.356 83.8925 221.562 83.4165 219.935 82.4646C218.329 81.4928 217.04 80.2037 216.068 78.5973C215.096 76.9711 214.611 75.1664 214.611 73.1832C214.611 71.2397 215.106 69.4548 216.098 67.8286C217.09 66.2023 218.398 64.9033 220.025 63.9316C221.651 62.9598 223.416 62.4739 225.32 62.4739C227.283 62.4739 229.078 62.9598 230.704 63.9316C232.33 64.8835 233.619 66.1726 234.571 67.7988C235.543 69.4052 236.029 71.2 236.029 73.1832C236.029 75.1664 235.543 76.9711 234.571 78.5973C233.619 80.2037 232.33 81.4928 230.704 82.4646C229.078 83.4165 227.283 83.8925 225.32 83.8925ZM225.32 77.0504C226.014 77.0504 226.649 76.8719 227.224 76.515C227.819 76.158 228.295 75.6919 228.652 75.1168C229.009 74.5218 229.187 73.8773 229.187 73.1832C229.187 72.4891 229.009 71.8544 228.652 71.2793C228.295 70.6844 227.819 70.2084 227.224 69.8514C226.649 69.4944 226.014 69.316 225.32 69.316C224.626 69.316 223.981 69.4944 223.386 69.8514C222.811 70.2084 222.345 70.6844 221.988 71.2793C221.631 71.8544 221.453 72.4891 221.453 73.1832C221.453 73.8773 221.631 74.5218 221.988 75.1168C222.345 75.6919 222.811 76.158 223.386 76.515C223.981 76.8719 224.626 77.0504 225.32 77.0504ZM200.331 60.689C198.368 60.689 196.573 60.2131 194.947 59.2611C193.321 58.2894 192.022 57.0003 191.05 55.3939C190.098 53.7677 189.622 51.963 189.622 49.9798C189.622 48.0362 190.118 46.2514 191.11 44.6251C192.101 42.9989 193.41 41.6999 195.036 40.7282C196.663 39.7564 198.428 39.2705 200.331 39.2705C202.295 39.2705 204.08 39.7564 205.686 40.7282C207.312 41.6801 208.611 42.9692 209.583 44.5954C210.555 46.2018 211.041 47.9966 211.041 49.9798C211.041 51.963 210.555 53.7677 209.583 55.3939C208.611 57.0003 207.312 58.2894 205.686 59.2611C204.08 60.2131 202.295 60.689 200.331 60.689ZM200.331 53.847C201.026 53.847 201.66 53.6685 202.235 53.3115C202.83 52.9546 203.306 52.4885 203.663 51.9134C204.02 51.3184 204.199 50.6739 204.199 49.9798C204.199 49.2857 204.02 48.651 203.663 48.0759C203.306 47.4809 202.83 47.005 202.235 46.648C201.66 46.291 201.026 46.1125 200.331 46.1125C199.637 46.1125 198.993 46.291 198.398 46.648C197.823 47.005 197.357 47.4809 197 48.0759C196.643 48.651 196.464 49.2857 196.464 49.9798C196.464 50.6739 196.643 51.3184 197 51.9134C197.357 52.4885 197.823 52.9546 198.398 53.3115C198.993 53.6685 199.637 53.847 200.331 53.847Z" fill="#00FF86"/>
<path d="M255.698 83V40.1629H273.784C274.201 40.1629 274.756 40.1828 275.45 40.2224C276.164 40.2423 276.799 40.3018 277.354 40.4009C279.912 40.7976 282.005 41.6404 283.631 42.9295C285.277 44.2186 286.487 45.8448 287.26 47.8082C288.034 49.7517 288.42 51.9233 288.42 54.323C288.42 57.9126 287.528 60.9865 285.743 63.5448C283.958 66.0833 281.162 67.6501 277.354 68.245L273.784 68.483H263.789V83H255.698ZM279.853 83L271.404 65.5677L279.734 63.9613L289.015 83H279.853ZM263.789 60.927H273.427C273.844 60.927 274.3 60.9072 274.796 60.8675C275.292 60.8279 275.748 60.7485 276.164 60.6295C277.255 60.3321 278.098 59.8363 278.693 59.1421C279.288 58.4282 279.694 57.6448 279.912 56.7921C280.15 55.9194 280.269 55.0964 280.269 54.323C280.269 53.5495 280.15 52.7364 279.912 51.8836C279.694 51.011 279.288 50.2277 278.693 49.5336C278.098 48.8196 277.255 48.3139 276.164 48.0164C275.748 47.8974 275.292 47.8181 274.796 47.7784C274.3 47.7388 273.844 47.7189 273.427 47.7189H263.789V60.927Z" fill="#00FF86"/>
<path d="M304.48 83.8925C302.179 83.8925 300.226 83.4561 298.619 82.5835C297.033 81.6911 295.823 80.5111 294.99 79.0435C294.177 77.5561 293.77 75.92 293.77 74.1351C293.77 72.6477 293.998 71.2892 294.454 70.0597C294.911 68.8301 295.644 67.7492 296.656 66.8171C297.687 65.8652 299.065 65.0719 300.791 64.4373C301.981 64.001 303.399 63.6143 305.045 63.2771C306.691 62.94 308.555 62.6227 310.637 62.3252C312.72 62.0079 315.01 61.6608 317.509 61.284L314.594 62.8904C314.594 60.9865 314.138 59.5884 313.225 58.6959C312.313 57.8035 310.786 57.3573 308.644 57.3573C307.454 57.3573 306.215 57.6448 304.926 58.22C303.637 58.7951 302.734 59.8164 302.219 61.284L294.901 58.9637C295.714 56.3062 297.241 54.1445 299.482 52.4786C301.723 50.8127 304.777 49.9798 308.644 49.9798C311.48 49.9798 313.999 50.4161 316.2 51.2887C318.402 52.1613 320.067 53.6685 321.198 55.8104C321.833 57.0003 322.209 58.1902 322.328 59.3801C322.447 60.57 322.507 61.8988 322.507 63.3664V83H315.427V76.396L316.438 77.7644C314.872 79.9261 313.176 81.4928 311.351 82.4646C309.547 83.4165 307.256 83.8925 304.48 83.8925ZM306.205 77.5264C307.692 77.5264 308.942 77.2686 309.953 76.7529C310.984 76.2175 311.798 75.6126 312.393 74.9383C313.007 74.264 313.424 73.6988 313.642 73.2427C314.058 72.3701 314.296 71.3586 314.356 70.2084C314.435 69.0383 314.475 68.0665 314.475 67.2931L316.855 67.8881C314.455 68.2847 312.512 68.6218 311.024 68.8995C309.537 69.1573 308.337 69.3953 307.425 69.6134C306.512 69.8316 305.709 70.0696 305.015 70.3274C304.222 70.6447 303.577 70.9918 303.081 71.3686C302.605 71.7255 302.248 72.1222 302.01 72.5585C301.792 72.9948 301.683 73.4807 301.683 74.0161C301.683 74.7499 301.862 75.3845 302.219 75.92C302.596 76.4356 303.121 76.8323 303.795 77.1099C304.47 77.3876 305.273 77.5264 306.205 77.5264Z" fill="#00FF86"/>
<path d="M330.182 83L330.242 40.1629H338.452V66.3412L349.34 50.8722H359.335L347.734 66.9361L360.109 83H349.578L338.452 67.5311V83H330.182Z" fill="#00FF86"/>
<path d="M377.422 83.8925C374.129 83.8925 371.224 83.1884 368.705 81.7803C366.207 80.3524 364.243 78.399 362.815 75.92C361.407 73.4212 360.703 70.5654 360.703 67.3526C360.703 63.8423 361.397 60.7882 362.786 58.1902C364.174 55.5922 366.088 53.5793 368.527 52.1514C370.966 50.7036 373.772 49.9798 376.946 49.9798C380.317 49.9798 383.183 50.7731 385.543 52.3596C387.903 53.9462 389.648 56.1773 390.778 59.0529C391.909 61.9285 392.305 65.3099 391.968 69.197H383.966V66.2222C383.966 62.9499 383.441 60.5998 382.389 59.1719C381.358 57.7242 379.663 57.0003 377.303 57.0003C374.546 57.0003 372.513 57.8432 371.204 59.5289C369.915 61.1948 369.271 63.6638 369.271 66.9361C369.271 69.9307 369.915 72.2511 371.204 73.8971C372.513 75.5234 374.427 76.3365 376.946 76.3365C378.532 76.3365 379.891 75.9894 381.021 75.2953C382.151 74.6012 383.014 73.5997 383.609 72.2907L391.701 74.6111C390.491 77.5462 388.577 79.8269 385.959 81.4531C383.361 83.0793 380.515 83.8925 377.422 83.8925ZM366.772 69.197V63.1879H388.071V69.197H366.772Z" fill="#00FF86"/>
<path d="M414.452 83.8925C411.259 83.8925 408.591 83.1488 406.45 81.6614C404.308 80.174 402.691 78.1511 401.601 75.5928C400.53 73.0344 399.994 70.1489 399.994 66.9361C399.994 63.7233 400.53 60.8378 401.601 58.2795C402.672 55.7211 404.248 53.6983 406.331 52.2109C408.413 50.7235 410.981 49.9798 414.035 49.9798C417.109 49.9798 419.787 50.7136 422.067 52.1811C424.348 53.6487 426.113 55.6616 427.362 58.22C428.632 60.7585 429.266 63.6638 429.266 66.9361C429.266 70.1489 428.642 73.0344 427.392 75.5928C426.163 78.1511 424.437 80.174 422.216 81.6614C419.995 83.1488 417.407 83.8925 414.452 83.8925ZM398.626 83V40.1629H406.777V60.9865H405.765V83H398.626ZM413.143 76.6934C414.888 76.6934 416.316 76.2571 417.427 75.3845C418.537 74.5119 419.36 73.3418 419.896 71.8743C420.431 70.3869 420.699 68.7408 420.699 66.9361C420.699 65.1512 420.421 63.525 419.866 62.0574C419.311 60.5701 418.448 59.39 417.278 58.5174C416.128 57.625 414.65 57.1788 412.845 57.1788C411.16 57.1788 409.791 57.5853 408.74 58.3984C407.709 59.2116 406.955 60.3519 406.479 61.8195C406.003 63.287 405.765 64.9926 405.765 66.9361C405.765 68.8796 406.003 70.5852 406.479 72.0528C406.955 73.5203 407.729 74.6607 408.8 75.4738C409.89 76.2869 411.338 76.6934 413.143 76.6934Z" fill="#00FF86"/>
<path d="M444.737 83.8925C442.436 83.8925 440.483 83.4561 438.876 82.5835C437.29 81.6911 436.08 80.5111 435.247 79.0435C434.434 77.5561 434.027 75.92 434.027 74.1351C434.027 72.6477 434.255 71.2892 434.711 70.0597C435.168 68.8301 435.901 67.7492 436.913 66.8171C437.944 65.8652 439.322 65.0719 441.048 64.4373C442.238 64.001 443.656 63.6143 445.302 63.2771C446.948 62.94 448.812 62.6227 450.894 62.3252C452.977 62.0079 455.267 61.6608 457.766 61.284L454.851 62.8904C454.851 60.9865 454.395 59.5884 453.482 58.6959C452.57 57.8035 451.043 57.3573 448.901 57.3573C447.711 57.3573 446.472 57.6448 445.183 58.22C443.894 58.7951 442.991 59.8164 442.476 61.284L435.158 58.9637C435.971 56.3062 437.498 54.1445 439.739 52.4786C441.98 50.8127 445.034 49.9798 448.901 49.9798C451.737 49.9798 454.256 50.4161 456.457 51.2887C458.659 52.1613 460.325 53.6685 461.455 55.8104C462.09 57.0003 462.466 58.1902 462.585 59.3801C462.704 60.57 462.764 61.8988 462.764 63.3664V83H455.684V76.396L456.695 77.7644C455.129 79.9261 453.433 81.4928 451.608 82.4646C449.804 83.4165 447.513 83.8925 444.737 83.8925ZM446.462 77.5264C447.949 77.5264 449.199 77.2686 450.21 76.7529C451.241 76.2175 452.055 75.6126 452.65 74.9383C453.264 74.264 453.681 73.6988 453.899 73.2427C454.315 72.3701 454.553 71.3586 454.613 70.2084C454.692 69.0383 454.732 68.0665 454.732 67.2931L457.112 67.8881C454.712 68.2847 452.769 68.6218 451.281 68.8995C449.794 69.1573 448.594 69.3953 447.682 69.6134C446.769 69.8316 445.966 70.0696 445.272 70.3274C444.479 70.6447 443.834 70.9918 443.338 71.3686C442.862 71.7255 442.505 72.1222 442.267 72.5585C442.049 72.9948 441.94 73.4807 441.94 74.0161C441.94 74.7499 442.119 75.3845 442.476 75.92C442.853 76.4356 443.378 76.8323 444.052 77.1099C444.727 77.3876 445.53 77.5264 446.462 77.5264Z" fill="#00FF86"/>
<path d="M484.659 83.8925C481.327 83.8925 478.471 83.1488 476.091 81.6614C473.712 80.174 471.887 78.1511 470.618 75.5928C469.349 73.0344 468.714 70.1489 468.714 66.9361C468.714 63.6837 469.368 60.7783 470.677 58.22C472.006 55.6616 473.87 53.6487 476.27 52.1811C478.67 50.7136 481.505 49.9798 484.778 49.9798C488.566 49.9798 491.739 50.9416 494.297 52.8653C496.875 54.7692 498.521 57.3771 499.235 60.689L491.144 62.8309C490.668 61.165 489.835 59.866 488.645 58.9339C487.475 58.0018 486.146 57.5358 484.659 57.5358C482.953 57.5358 481.555 57.9522 480.464 58.7852C479.374 59.5983 478.57 60.7188 478.055 62.1467C477.539 63.5548 477.281 65.1512 477.281 66.9361C477.281 69.7324 477.896 72.0032 479.126 73.7484C480.375 75.4738 482.219 76.3365 484.659 76.3365C486.483 76.3365 487.872 75.92 488.824 75.0871C489.775 74.2541 490.489 73.0642 490.965 71.5173L499.235 73.2427C498.323 76.6538 496.598 79.2815 494.059 81.1259C491.521 82.9703 488.387 83.8925 484.659 83.8925Z" fill="#00FF86"/>
<path d="M505.126 83L505.185 40.1629H513.396V66.3412L524.284 50.8722H534.279L522.677 66.9361L535.052 83H524.522L513.396 67.5311V83H505.126Z" fill="#00FF86"/>
</g>
<mask id="path-9-outside-1_42_7" maskUnits="userSpaceOnUse" x="133.01" y="111.896" width="400" height="30" fill="black">
<rect fill="white" x="133.01" y="111.896" width="400" height="30"/>
<path d="M134.01 134V113.327H146.643V117.232H137.915V121.711H144.92V125.616H137.915V134H134.01Z"/>
<path d="M155.792 134.431C154.232 134.431 152.863 134.081 151.686 133.383C150.509 132.684 149.59 131.722 148.929 130.497C148.279 129.263 147.953 127.846 147.953 126.248C147.953 124.63 148.288 123.209 148.958 121.984C149.628 120.749 150.552 119.787 151.729 119.098C152.906 118.409 154.26 118.065 155.792 118.065C157.352 118.065 158.72 118.414 159.898 119.113C161.084 119.811 162.008 120.778 162.668 122.013C163.329 123.238 163.659 124.649 163.659 126.248C163.659 127.856 163.324 129.277 162.654 130.511C161.994 131.737 161.07 132.698 159.883 133.397C158.706 134.086 157.342 134.431 155.792 134.431ZM155.792 130.784C157.045 130.784 157.979 130.363 158.591 129.521C159.213 128.669 159.524 127.578 159.524 126.248C159.524 124.87 159.208 123.769 158.577 122.946C157.955 122.123 157.026 121.711 155.792 121.711C154.94 121.711 154.241 121.903 153.696 122.285C153.15 122.668 152.743 123.199 152.475 123.879C152.217 124.558 152.088 125.348 152.088 126.248C152.088 127.635 152.399 128.741 153.021 129.564C153.653 130.378 154.576 130.784 155.792 130.784Z"/>
<path d="M166.816 134V118.495H170.261V122.285L169.888 121.797C170.089 121.261 170.357 120.773 170.692 120.333C171.027 119.893 171.439 119.529 171.927 119.242C172.3 119.012 172.707 118.835 173.147 118.711C173.587 118.577 174.042 118.495 174.511 118.467C174.98 118.428 175.449 118.438 175.918 118.495V122.142C175.487 122.008 174.984 121.965 174.41 122.013C173.846 122.051 173.334 122.18 172.874 122.4C172.415 122.611 172.027 122.893 171.711 123.247C171.395 123.592 171.156 124.003 170.993 124.482C170.831 124.951 170.749 125.482 170.749 126.075V134H166.816Z"/>
<path d="M184.397 134V113.327H197.03V117.232H188.301V121.711H195.307V125.616H188.301V134H184.397Z"/>
<path d="M199.909 116.342V112.896H203.814V116.342H199.909ZM199.909 134V118.495H203.814V134H199.909Z"/>
<path d="M208.118 134V118.495H211.563V122.285L211.19 121.797C211.391 121.261 211.659 120.773 211.994 120.333C212.329 119.893 212.741 119.529 213.229 119.242C213.602 119.012 214.009 118.835 214.449 118.711C214.889 118.577 215.344 118.495 215.813 118.467C216.282 118.428 216.751 118.438 217.22 118.495V122.142C216.789 122.008 216.286 121.965 215.712 122.013C215.148 122.051 214.636 122.18 214.176 122.4C213.717 122.611 213.329 122.893 213.013 123.247C212.697 123.592 212.458 124.003 212.295 124.482C212.133 124.951 212.051 125.482 212.051 126.075V134H208.118Z"/>
<path d="M225.448 134.431C223.496 134.431 221.916 133.99 220.71 133.11C219.514 132.22 218.787 130.966 218.528 129.349L222.519 128.746C222.682 129.473 223.041 130.043 223.596 130.454C224.161 130.866 224.874 131.071 225.735 131.071C226.443 131.071 226.989 130.937 227.372 130.669C227.755 130.392 227.946 130.009 227.946 129.521C227.946 129.215 227.869 128.971 227.716 128.789C227.563 128.597 227.219 128.411 226.683 128.229C226.156 128.047 225.333 127.808 224.213 127.511C222.95 127.186 221.94 126.822 221.184 126.42C220.428 126.018 219.883 125.539 219.548 124.984C219.213 124.42 219.045 123.74 219.045 122.946C219.045 121.95 219.299 121.089 219.806 120.362C220.313 119.625 221.026 119.06 221.945 118.668C222.873 118.266 223.964 118.065 225.218 118.065C226.434 118.065 227.51 118.251 228.448 118.625C229.386 118.998 230.142 119.529 230.717 120.218C231.3 120.907 231.659 121.721 231.793 122.659L227.802 123.376C227.735 122.802 227.487 122.348 227.056 122.013C226.625 121.678 226.041 121.481 225.304 121.424C224.587 121.376 224.008 121.472 223.567 121.711C223.137 121.95 222.921 122.295 222.921 122.745C222.921 123.013 223.012 123.238 223.194 123.42C223.385 123.601 223.773 123.788 224.357 123.979C224.95 124.171 225.85 124.42 227.056 124.726C228.233 125.032 229.176 125.391 229.884 125.803C230.602 126.205 231.123 126.693 231.449 127.267C231.774 127.832 231.937 128.516 231.937 129.32C231.937 130.909 231.363 132.158 230.214 133.067C229.066 133.976 227.477 134.431 225.448 134.431Z"/>
<path d="M244.395 134C243.323 134.201 242.27 134.287 241.236 134.258C240.212 134.239 239.293 134.062 238.48 133.727C237.676 133.383 237.063 132.832 236.642 132.076C236.259 131.368 236.058 130.65 236.039 129.923C236.02 129.186 236.011 128.353 236.011 127.425V114.189H239.915V127.195C239.915 127.798 239.92 128.344 239.93 128.832C239.949 129.31 240.049 129.693 240.231 129.98C240.576 130.526 241.126 130.823 241.882 130.87C242.638 130.918 243.476 130.88 244.395 130.756V134ZM233.369 121.51V118.495H244.395V121.51H233.369Z"/>
<path d="M254.631 134L261.58 117.002H252.736V113.327H265.772V117.002L258.852 134H254.631Z"/>
<path d="M274.964 134V113.327H281.654C281.816 113.327 282.151 113.332 282.659 113.342C283.166 113.351 283.654 113.385 284.123 113.442C285.788 113.643 287.2 114.222 288.358 115.179C289.516 116.136 290.397 117.352 291 118.826C291.603 120.299 291.904 121.912 291.904 123.664C291.904 125.415 291.603 127.028 291 128.502C290.397 129.976 289.516 131.191 288.358 132.148C287.2 133.105 285.788 133.684 284.123 133.885C283.654 133.943 283.166 133.976 282.659 133.986C282.151 133.995 281.816 134 281.654 134H274.964ZM278.926 130.325H281.654C281.912 130.325 282.261 130.32 282.702 130.311C283.142 130.291 283.539 130.248 283.893 130.181C284.793 129.999 285.525 129.578 286.09 128.918C286.664 128.258 287.085 127.463 287.353 126.535C287.631 125.606 287.769 124.649 287.769 123.664C287.769 122.63 287.626 121.649 287.339 120.721C287.061 119.792 286.635 119.007 286.061 118.366C285.487 117.725 284.764 117.318 283.893 117.146C283.539 117.069 283.142 117.026 282.702 117.017C282.261 117.007 281.912 117.002 281.654 117.002H278.926V130.325Z"/>
<path d="M299.655 134.431C298.545 134.431 297.602 134.22 296.827 133.799C296.061 133.368 295.478 132.799 295.076 132.091C294.683 131.373 294.487 130.583 294.487 129.722C294.487 129.004 294.597 128.348 294.817 127.755C295.037 127.162 295.391 126.64 295.88 126.19C296.377 125.731 297.042 125.348 297.875 125.042C298.449 124.831 299.134 124.645 299.928 124.482C300.722 124.319 301.622 124.166 302.627 124.023C303.632 123.869 304.737 123.702 305.943 123.52L304.536 124.295C304.536 123.376 304.316 122.702 303.876 122.271C303.436 121.84 302.699 121.625 301.665 121.625C301.091 121.625 300.493 121.764 299.871 122.041C299.248 122.319 298.813 122.812 298.564 123.52L295.033 122.4C295.425 121.118 296.162 120.075 297.243 119.271C298.325 118.467 299.799 118.065 301.665 118.065C303.034 118.065 304.249 118.275 305.312 118.696C306.374 119.117 307.178 119.845 307.723 120.879C308.03 121.453 308.211 122.027 308.269 122.601C308.326 123.175 308.355 123.817 308.355 124.525V134H304.938V130.813L305.426 131.473C304.67 132.517 303.852 133.273 302.971 133.742C302.101 134.201 300.995 134.431 299.655 134.431ZM300.488 131.359C301.206 131.359 301.809 131.234 302.297 130.985C302.794 130.727 303.187 130.435 303.474 130.11C303.771 129.784 303.972 129.511 304.077 129.291C304.278 128.87 304.393 128.382 304.421 127.827C304.46 127.262 304.479 126.793 304.479 126.42L305.627 126.707C304.469 126.899 303.531 127.061 302.814 127.195C302.096 127.32 301.517 127.434 301.076 127.54C300.636 127.645 300.249 127.76 299.914 127.884C299.531 128.037 299.22 128.205 298.98 128.387C298.751 128.559 298.578 128.75 298.464 128.961C298.358 129.172 298.306 129.406 298.306 129.664C298.306 130.019 298.392 130.325 298.564 130.583C298.746 130.832 299 131.024 299.325 131.158C299.65 131.292 300.038 131.359 300.488 131.359Z"/>
<path d="M313.2 140.891L316.186 132.679L316.243 135.091L309.496 118.495H313.544L318.081 130.239H317.162L321.67 118.495H325.575L316.818 140.891H313.2Z"/>
<path d="M333.652 134.431C331.699 134.431 330.12 133.99 328.914 133.11C327.718 132.22 326.991 130.966 326.732 129.349L330.723 128.746C330.886 129.473 331.245 130.043 331.8 130.454C332.365 130.866 333.078 131.071 333.939 131.071C334.647 131.071 335.193 130.937 335.576 130.669C335.958 130.392 336.15 130.009 336.15 129.521C336.15 129.215 336.073 128.971 335.92 128.789C335.767 128.597 335.423 128.411 334.887 128.229C334.36 128.047 333.537 127.808 332.417 127.511C331.154 127.186 330.144 126.822 329.388 126.42C328.632 126.018 328.087 125.539 327.752 124.984C327.417 124.42 327.249 123.74 327.249 122.946C327.249 121.95 327.503 121.089 328.01 120.362C328.517 119.625 329.23 119.06 330.149 118.668C331.077 118.266 332.168 118.065 333.422 118.065C334.638 118.065 335.714 118.251 336.652 118.625C337.59 118.998 338.346 119.529 338.921 120.218C339.504 120.907 339.863 121.721 339.997 122.659L336.006 123.376C335.939 122.802 335.69 122.348 335.26 122.013C334.829 121.678 334.245 121.481 333.508 121.424C332.791 121.376 332.212 121.472 331.771 121.711C331.341 121.95 331.125 122.295 331.125 122.745C331.125 123.013 331.216 123.238 331.398 123.42C331.589 123.601 331.977 123.788 332.561 123.979C333.154 124.171 334.054 124.42 335.26 124.726C336.437 125.032 337.38 125.391 338.088 125.803C338.806 126.205 339.327 126.693 339.653 127.267C339.978 127.832 340.141 128.516 340.141 129.32C340.141 130.909 339.567 132.158 338.418 133.067C337.27 133.976 335.681 134.431 333.652 134.431Z"/>
<path d="M354.815 134.459C353.599 134.459 352.609 134.254 351.843 133.842C351.078 133.431 350.479 132.909 350.049 132.277C349.628 131.646 349.326 130.99 349.144 130.311C348.962 129.621 348.852 128.995 348.814 128.43C348.776 127.865 348.757 127.454 348.757 127.195V118.495H352.719V125.817C352.719 126.171 352.738 126.626 352.776 127.181C352.815 127.726 352.934 128.277 353.135 128.832C353.336 129.387 353.662 129.851 354.111 130.224C354.571 130.598 355.217 130.784 356.05 130.784C356.385 130.784 356.743 130.732 357.126 130.626C357.509 130.521 357.868 130.32 358.203 130.023C358.538 129.717 358.811 129.272 359.021 128.688C359.241 128.095 359.351 127.32 359.351 126.363L361.591 127.425C361.591 128.65 361.342 129.798 360.844 130.87C360.347 131.942 359.596 132.808 358.591 133.469C357.595 134.129 356.337 134.459 354.815 134.459ZM359.84 134V128.861H359.351V118.495H363.285V134H359.84Z"/>
<path d="M374.906 134.431C373.365 134.431 372.078 134.072 371.044 133.354C370.011 132.636 369.231 131.66 368.704 130.425C368.187 129.191 367.929 127.798 367.929 126.248C367.929 124.697 368.187 123.305 368.704 122.07C369.221 120.835 369.982 119.859 370.987 119.141C371.992 118.424 373.231 118.065 374.705 118.065C376.189 118.065 377.481 118.419 378.581 119.127C379.682 119.835 380.534 120.807 381.137 122.041C381.749 123.266 382.055 124.669 382.055 126.248C382.055 127.798 381.754 129.191 381.151 130.425C380.558 131.66 379.725 132.636 378.653 133.354C377.581 134.072 376.332 134.431 374.906 134.431ZM367.269 140.891V118.495H370.714V129.119H371.202V140.891H367.269ZM374.274 130.957C375.117 130.957 375.806 130.746 376.342 130.325C376.878 129.904 377.275 129.339 377.533 128.631C377.792 127.913 377.921 127.119 377.921 126.248C377.921 125.386 377.787 124.602 377.519 123.893C377.251 123.175 376.835 122.606 376.27 122.185C375.715 121.754 375.002 121.539 374.131 121.539C373.317 121.539 372.657 121.735 372.15 122.127C371.652 122.52 371.288 123.07 371.059 123.778C370.829 124.487 370.714 125.31 370.714 126.248C370.714 127.186 370.829 128.009 371.059 128.717C371.288 129.425 371.662 129.976 372.178 130.368C372.705 130.76 373.404 130.957 374.274 130.957Z"/>
<path d="M392.192 134.431C390.632 134.431 389.263 134.081 388.086 133.383C386.909 132.684 385.99 131.722 385.329 130.497C384.679 129.263 384.353 127.846 384.353 126.248C384.353 124.63 384.688 123.209 385.358 121.984C386.028 120.749 386.952 119.787 388.129 119.098C389.306 118.409 390.66 118.065 392.192 118.065C393.752 118.065 395.12 118.414 396.297 119.113C397.484 119.811 398.408 120.778 399.068 122.013C399.729 123.238 400.059 124.649 400.059 126.248C400.059 127.856 399.724 129.277 399.054 130.511C398.393 131.737 397.47 132.698 396.283 133.397C395.106 134.086 393.742 134.431 392.192 134.431ZM392.192 130.784C393.445 130.784 394.379 130.363 394.991 129.521C395.613 128.669 395.924 127.578 395.924 126.248C395.924 124.87 395.608 123.769 394.977 122.946C394.355 122.123 393.426 121.711 392.192 121.711C391.34 121.711 390.641 121.903 390.096 122.285C389.55 122.668 389.143 123.199 388.875 123.879C388.617 124.558 388.488 125.348 388.488 126.248C388.488 127.635 388.799 128.741 389.421 129.564C390.053 130.378 390.976 130.784 392.192 130.784Z"/>
<path d="M413.782 134V126.678C413.782 126.324 413.763 125.874 413.725 125.329C413.686 124.774 413.567 124.219 413.366 123.664C413.165 123.108 412.834 122.644 412.375 122.271C411.925 121.898 411.284 121.711 410.451 121.711C410.116 121.711 409.757 121.764 409.375 121.869C408.992 121.974 408.633 122.18 408.298 122.486C407.963 122.783 407.685 123.223 407.465 123.807C407.255 124.391 407.149 125.166 407.149 126.133L404.91 125.071C404.91 123.845 405.159 122.697 405.656 121.625C406.154 120.553 406.901 119.687 407.896 119.027C408.901 118.366 410.164 118.036 411.686 118.036C412.901 118.036 413.892 118.242 414.658 118.653C415.423 119.065 416.017 119.586 416.438 120.218C416.869 120.85 417.175 121.51 417.357 122.199C417.538 122.879 417.649 123.501 417.687 124.066C417.725 124.63 417.744 125.042 417.744 125.3V134H413.782ZM403.187 134V118.495H406.661V123.635H407.149V134H403.187Z"/>
<path d="M435.027 134.431C433.496 134.431 432.113 134.163 430.878 133.627C429.653 133.081 428.644 132.306 427.849 131.301C427.064 130.287 426.567 129.081 426.356 127.683L430.433 127.08C430.72 128.267 431.314 129.181 432.213 129.822C433.113 130.464 434.137 130.784 435.286 130.784C435.927 130.784 436.549 130.684 437.152 130.483C437.755 130.282 438.248 129.985 438.631 129.593C439.023 129.2 439.219 128.717 439.219 128.143C439.219 127.932 439.186 127.731 439.119 127.54C439.061 127.339 438.961 127.152 438.817 126.98C438.674 126.808 438.468 126.645 438.2 126.492C437.942 126.339 437.611 126.2 437.209 126.075L431.84 124.496C431.438 124.381 430.969 124.219 430.433 124.008C429.907 123.798 429.395 123.496 428.897 123.104C428.4 122.711 427.983 122.194 427.648 121.553C427.323 120.902 427.16 120.084 427.16 119.098C427.16 117.711 427.509 116.557 428.208 115.639C428.907 114.72 429.84 114.035 431.008 113.586C432.175 113.136 433.467 112.916 434.884 112.925C436.31 112.944 437.583 113.188 438.702 113.657C439.822 114.126 440.76 114.811 441.516 115.71C442.272 116.6 442.818 117.691 443.153 118.983L438.932 119.701C438.779 119.031 438.497 118.467 438.085 118.007C437.674 117.548 437.181 117.199 436.606 116.959C436.042 116.72 435.448 116.591 434.826 116.572C434.214 116.553 433.635 116.639 433.089 116.83C432.553 117.012 432.113 117.28 431.768 117.634C431.433 117.988 431.266 118.409 431.266 118.897C431.266 119.347 431.405 119.716 431.682 120.003C431.96 120.28 432.309 120.505 432.73 120.678C433.151 120.85 433.582 120.993 434.022 121.108L437.611 122.084C438.147 122.228 438.741 122.419 439.392 122.659C440.042 122.888 440.664 123.214 441.258 123.635C441.861 124.046 442.354 124.592 442.737 125.271C443.129 125.951 443.325 126.812 443.325 127.856C443.325 128.966 443.091 129.937 442.622 130.77C442.162 131.593 441.54 132.277 440.755 132.823C439.971 133.359 439.081 133.761 438.085 134.029C437.099 134.297 436.08 134.431 435.027 134.431Z"/>
<path d="M446.768 116.342V112.896H450.673V116.342H446.768ZM446.768 134V118.495H450.673V134H446.768Z"/>
<path d="M461.609 141.322C460.729 141.322 459.891 141.178 459.097 140.891C458.302 140.613 457.589 140.221 456.958 139.714C456.336 139.216 455.828 138.632 455.436 137.962L459.054 136.211C459.302 136.67 459.657 137.02 460.116 137.259C460.585 137.498 461.092 137.618 461.638 137.618C462.222 137.618 462.772 137.517 463.289 137.316C463.806 137.125 464.217 136.833 464.523 136.441C464.839 136.058 464.988 135.579 464.968 135.005V130.497H465.457V118.495H468.873V135.062C468.873 135.445 468.854 135.804 468.816 136.139C468.787 136.484 468.73 136.823 468.644 137.158C468.395 138.106 467.931 138.886 467.251 139.498C466.581 140.111 465.758 140.566 464.782 140.862C463.806 141.169 462.748 141.322 461.609 141.322ZM461.264 134.431C459.838 134.431 458.589 134.072 457.518 133.354C456.446 132.636 455.608 131.66 455.005 130.425C454.412 129.191 454.115 127.798 454.115 126.248C454.115 124.669 454.417 123.266 455.02 122.041C455.632 120.807 456.489 119.835 457.589 119.127C458.69 118.419 459.982 118.065 461.465 118.065C462.939 118.065 464.179 118.424 465.184 119.141C466.189 119.859 466.95 120.835 467.466 122.07C467.983 123.305 468.242 124.697 468.242 126.248C468.242 127.798 467.978 129.191 467.452 130.425C466.935 131.66 466.16 132.636 465.126 133.354C464.093 134.072 462.805 134.431 461.264 134.431ZM461.896 130.957C462.767 130.957 463.461 130.76 463.978 130.368C464.504 129.976 464.882 129.425 465.112 128.717C465.342 128.009 465.457 127.186 465.457 126.248C465.457 125.31 465.342 124.487 465.112 123.778C464.882 123.07 464.514 122.52 464.007 122.127C463.509 121.735 462.853 121.539 462.04 121.539C461.169 121.539 460.451 121.754 459.886 122.185C459.331 122.606 458.92 123.175 458.652 123.893C458.384 124.602 458.25 125.386 458.25 126.248C458.25 127.119 458.379 127.913 458.637 128.631C458.896 129.339 459.293 129.904 459.829 130.325C460.365 130.746 461.054 130.957 461.896 130.957Z"/>
<path d="M483.46 134V126.678C483.46 126.324 483.441 125.874 483.402 125.329C483.364 124.774 483.244 124.219 483.043 123.664C482.842 123.108 482.512 122.644 482.053 122.271C481.603 121.898 480.962 121.711 480.129 121.711C479.794 121.711 479.435 121.764 479.052 121.869C478.67 121.974 478.311 122.18 477.976 122.486C477.641 122.783 477.363 123.223 477.143 123.807C476.933 124.391 476.827 125.166 476.827 126.133L474.588 125.071C474.588 123.845 474.837 122.697 475.334 121.625C475.832 120.553 476.578 119.687 477.574 119.027C478.579 118.366 479.842 118.036 481.364 118.036C482.579 118.036 483.57 118.242 484.336 118.653C485.101 119.065 485.695 119.586 486.116 120.218C486.546 120.85 486.853 121.51 487.034 122.199C487.216 122.879 487.326 123.501 487.365 124.066C487.403 124.63 487.422 125.042 487.422 125.3V134H483.46ZM472.865 134V118.495H476.339V123.635H476.827V134H472.865Z"/>
<path d="M505.308 134.431C503.643 134.431 502.178 134.096 500.915 133.426C499.652 132.746 498.666 131.794 497.958 130.569C497.249 129.344 496.895 127.903 496.895 126.248V113.356L500.858 113.327V126.219C500.858 126.899 500.973 127.516 501.202 128.071C501.432 128.626 501.748 129.105 502.15 129.507C502.561 129.909 503.035 130.22 503.571 130.44C504.117 130.65 504.696 130.756 505.308 130.756C505.94 130.756 506.524 130.645 507.06 130.425C507.605 130.205 508.079 129.894 508.481 129.492C508.883 129.09 509.194 128.612 509.414 128.057C509.644 127.501 509.758 126.889 509.758 126.219V113.327H513.721V126.248C513.721 127.903 513.367 129.344 512.658 130.569C511.95 131.794 510.964 132.746 509.701 133.426C508.438 134.096 506.973 134.431 505.308 134.431Z"/>
<path d="M525.337 134.431C523.796 134.431 522.509 134.072 521.476 133.354C520.442 132.636 519.662 131.66 519.136 130.425C518.619 129.191 518.36 127.798 518.36 126.248C518.36 124.697 518.619 123.305 519.136 122.07C519.652 120.835 520.413 119.859 521.418 119.141C522.423 118.424 523.662 118.065 525.136 118.065C526.62 118.065 527.912 118.419 529.013 119.127C530.113 119.835 530.965 120.807 531.568 122.041C532.18 123.266 532.487 124.669 532.487 126.248C532.487 127.798 532.185 129.191 531.582 130.425C530.989 131.66 530.156 132.636 529.084 133.354C528.012 134.072 526.763 134.431 525.337 134.431ZM517.7 140.891V118.495H521.145V129.119H521.633V140.891H517.7ZM524.706 130.957C525.548 130.957 526.237 130.746 526.773 130.325C527.309 129.904 527.706 129.339 527.965 128.631C528.223 127.913 528.352 127.119 528.352 126.248C528.352 125.386 528.218 124.602 527.95 123.893C527.682 123.175 527.266 122.606 526.701 122.185C526.146 121.754 525.433 121.539 524.562 121.539C523.749 121.539 523.088 121.735 522.581 122.127C522.083 122.52 521.72 123.07 521.49 123.778C521.26 124.487 521.145 125.31 521.145 126.248C521.145 127.186 521.26 128.009 521.49 128.717C521.72 129.425 522.093 129.976 522.61 130.368C523.136 130.76 523.835 130.957 524.706 130.957Z"/>
</mask>
<path d="M134.01 134V113.327H146.643V117.232H137.915V121.711H144.92V125.616H137.915V134H134.01Z" stroke="#00FF86" stroke-width="0.8" mask="url(#path-9-outside-1_42_7)"/>
<path d="M155.792 134.431C154.232 134.431 152.863 134.081 151.686 133.383C150.509 132.684 149.59 131.722 148.929 130.497C148.279 129.263 147.953 127.846 147.953 126.248C147.953 124.63 148.288 123.209 148.958 121.984C149.628 120.749 150.552 119.787 151.729 119.098C152.906 118.409 154.26 118.065 155.792 118.065C157.352 118.065 158.72 118.414 159.898 119.113C161.084 119.811 162.008 120.778 162.668 122.013C163.329 123.238 163.659 124.649 163.659 126.248C163.659 127.856 163.324 129.277 162.654 130.511C161.994 131.737 161.07 132.698 159.883 133.397C158.706 134.086 157.342 134.431 155.792 134.431ZM155.792 130.784C157.045 130.784 157.979 130.363 158.591 129.521C159.213 128.669 159.524 127.578 159.524 126.248C159.524 124.87 159.208 123.769 158.577 122.946C157.955 122.123 157.026 121.711 155.792 121.711C154.94 121.711 154.241 121.903 153.696 122.285C153.15 122.668 152.743 123.199 152.475 123.879C152.217 124.558 152.088 125.348 152.088 126.248C152.088 127.635 152.399 128.741 153.021 129.564C153.653 130.378 154.576 130.784 155.792 130.784Z" stroke="#00FF86" stroke-width="0.8" mask="url(#path-9-outside-1_42_7)"/>
<path d="M166.816 134V118.495H170.261V122.285L169.888 121.797C170.089 121.261 170.357 120.773 170.692 120.333C171.027 119.893 171.439 119.529 171.927 119.242C172.3 119.012 172.707 118.835 173.147 118.711C173.587 118.577 174.042 118.495 174.511 118.467C174.98 118.428 175.449 118.438 175.918 118.495V122.142C175.487 122.008 174.984 121.965 174.41 122.013C173.846 122.051 173.334 122.18 172.874 122.4C172.415 122.611 172.027 122.893 171.711 123.247C171.395 123.592 171.156 124.003 170.993 124.482C170.831 124.951 170.749 125.482 170.749 126.075V134H166.816Z" stroke="#00FF86" stroke-width="0.8" mask="url(#path-9-outside-1_42_7)"/>
<path d="M184.397 134V113.327H197.03V117.232H188.301V121.711H195.307V125.616H188.301V134H184.397Z" stroke="#00FF86" stroke-width="0.8" mask="url(#path-9-outside-1_42_7)"/>
<path d="M199.909 116.342V112.896H203.814V116.342H199.909ZM199.909 134V118.495H203.814V134H199.909Z" stroke="#00FF86" stroke-width="0.8" mask="url(#path-9-outside-1_42_7)"/>
<path d="M208.118 134V118.495H211.563V122.285L211.19 121.797C211.391 121.261 211.659 120.773 211.994 120.333C212.329 119.893 212.741 119.529 213.229 119.242C213.602 119.012 214.009 118.835 214.449 118.711C214.889 118.577 215.344 118.495 215.813 118.467C216.282 118.428 216.751 118.438 217.22 118.495V122.142C216.789 122.008 216.286 121.965 215.712 122.013C215.148 122.051 214.636 122.18 214.176 122.4C213.717 122.611 213.329 122.893 213.013 123.247C212.697 123.592 212.458 124.003 212.295 124.482C212.133 124.951 212.051 125.482 212.051 126.075V134H208.118Z" stroke="#00FF86" stroke-width="0.8" mask="url(#path-9-outside-1_42_7)"/>
<path d="M225.448 134.431C223.496 134.431 221.916 133.99 220.71 133.11C219.514 132.22 218.787 130.966 218.528 129.349L222.519 128.746C222.682 129.473 223.041 130.043 223.596 130.454C224.161 130.866 224.874 131.071 225.735 131.071C226.443 131.071 226.989 130.937 227.372 130.669C227.755 130.392 227.946 130.009 227.946 129.521C227.946 129.215 227.869 128.971 227.716 128.789C227.563 128.597 227.219 128.411 226.683 128.229C226.156 128.047 225.333 127.808 224.213 127.511C222.95 127.186 221.94 126.822 221.184 126.42C220.428 126.018 219.883 125.539 219.548 124.984C219.213 124.42 219.045 123.74 219.045 122.946C219.045 121.95 219.299 121.089 219.806 120.362C220.313 119.625 221.026 119.06 221.945 118.668C222.873 118.266 223.964 118.065 225.218 118.065C226.434 118.065 227.51 118.251 228.448 118.625C229.386 118.998 230.142 119.529 230.717 120.218C231.3 120.907 231.659 121.721 231.793 122.659L227.802 123.376C227.735 122.802 227.487 122.348 227.056 122.013C226.625 121.678 226.041 121.481 225.304 121.424C224.587 121.376 224.008 121.472 223.567 121.711C223.137 121.95 222.921 122.295 222.921 122.745C222.921 123.013 223.012 123.238 223.194 123.42C223.385 123.601 223.773 123.788 224.357 123.979C224.95 124.171 225.85 124.42 227.056 124.726C228.233 125.032 229.176 125.391 229.884 125.803C230.602 126.205 231.123 126.693 231.449 127.267C231.774 127.832 231.937 128.516 231.937 129.32C231.937 130.909 231.363 132.158 230.214 133.067C229.066 133.976 227.477 134.431 225.448 134.431Z" stroke="#00FF86" stroke-width="0.8" mask="url(#path-9-outside-1_42_7)"/>
<path d="M244.395 134C243.323 134.201 242.27 134.287 241.236 134.258C240.212 134.239 239.293 134.062 238.48 133.727C237.676 133.383 237.063 132.832 236.642 132.076C236.259 131.368 236.058 130.65 236.039 129.923C236.02 129.186 236.011 128.353 236.011 127.425V114.189H239.915V127.195C239.915 127.798 239.92 128.344 239.93 128.832C239.949 129.31 240.049 129.693 240.231 129.98C240.576 130.526 241.126 130.823 241.882 130.87C242.638 130.918 243.476 130.88 244.395 130.756V134ZM233.369 121.51V118.495H244.395V121.51H233.369Z" stroke="#00FF86" stroke-width="0.8" mask="url(#path-9-outside-1_42_7)"/>
<path d="M254.631 134L261.58 117.002H252.736V113.327H265.772V117.002L258.852 134H254.631Z" stroke="#00FF86" stroke-width="0.8" mask="url(#path-9-outside-1_42_7)"/>
<path d="M274.964 134V113.327H281.654C281.816 113.327 282.151 113.332 282.659 113.342C283.166 113.351 283.654 113.385 284.123 113.442C285.788 113.643 287.2 114.222 288.358 115.179C289.516 116.136 290.397 117.352 291 118.826C291.603 120.299 291.904 121.912 291.904 123.664C291.904 125.415 291.603 127.028 291 128.502C290.397 129.976 289.516 131.191 288.358 132.148C287.2 133.105 285.788 133.684 284.123 133.885C283.654 133.943 283.166 133.976 282.659 133.986C282.151 133.995 281.816 134 281.654 134H274.964ZM278.926 130.325H281.654C281.912 130.325 282.261 130.32 282.702 130.311C283.142 130.291 283.539 130.248 283.893 130.181C284.793 129.999 285.525 129.578 286.09 128.918C286.664 128.258 287.085 127.463 287.353 126.535C287.631 125.606 287.769 124.649 287.769 123.664C287.769 122.63 287.626 121.649 287.339 120.721C287.061 119.792 286.635 119.007 286.061 118.366C285.487 117.725 284.764 117.318 283.893 117.146C283.539 117.069 283.142 117.026 282.702 117.017C282.261 117.007 281.912 117.002 281.654 117.002H278.926V130.325Z" stroke="#00FF86" stroke-width="0.8" mask="url(#path-9-outside-1_42_7)"/>
<path d="M299.655 134.431C298.545 134.431 297.602 134.22 296.827 133.799C296.061 133.368 295.478 132.799 295.076 132.091C294.683 131.373 294.487 130.583 294.487 129.722C294.487 129.004 294.597 128.348 294.817 127.755C295.037 127.162 295.391 126.64 295.88 126.19C296.377 125.731 297.042 125.348 297.875 125.042C298.449 124.831 299.134 124.645 299.928 124.482C300.722 124.319 301.622 124.166 302.627 124.023C303.632 123.869 304.737 123.702 305.943 123.52L304.536 124.295C304.536 123.376 304.316 122.702 303.876 122.271C303.436 121.84 302.699 121.625 301.665 121.625C301.091 121.625 300.493 121.764 299.871 122.041C299.248 122.319 298.813 122.812 298.564 123.52L295.033 122.4C295.425 121.118 296.162 120.075 297.243 119.271C298.325 118.467 299.799 118.065 301.665 118.065C303.034 118.065 304.249 118.275 305.312 118.696C306.374 119.117 307.178 119.845 307.723 120.879C308.03 121.453 308.211 122.027 308.269 122.601C308.326 123.175 308.355 123.817 308.355 124.525V134H304.938V130.813L305.426 131.473C304.67 132.517 303.852 133.273 302.971 133.742C302.101 134.201 300.995 134.431 299.655 134.431ZM300.488 131.359C301.206 131.359 301.809 131.234 302.297 130.985C302.794 130.727 303.187 130.435 303.474 130.11C303.771 129.784 303.972 129.511 304.077 129.291C304.278 128.87 304.393 128.382 304.421 127.827C304.46 127.262 304.479 126.793 304.479 126.42L305.627 126.707C304.469 126.899 303.531 127.061 302.814 127.195C302.096 127.32 301.517 127.434 301.076 127.54C300.636 127.645 300.249 127.76 299.914 127.884C299.531 128.037 299.22 128.205 298.98 128.387C298.751 128.559 298.578 128.75 298.464 128.961C298.358 129.172 298.306 129.406 298.306 129.664C298.306 130.019 298.392 130.325 298.564 130.583C298.746 130.832 299 131.024 299.325 131.158C299.65 131.292 300.038 131.359 300.488 131.359Z" stroke="#00FF86" stroke-width="0.8" mask="url(#path-9-outside-1_42_7)"/>
<path d="M313.2 140.891L316.186 132.679L316.243 135.091L309.496 118.495H313.544L318.081 130.239H317.162L321.67 118.495H325.575L316.818 140.891H313.2Z" stroke="#00FF86" stroke-width="0.8" mask="url(#path-9-outside-1_42_7)"/>
<path d="M333.652 134.431C331.699 134.431 330.12 133.99 328.914 133.11C327.718 132.22 326.991 130.966 326.732 129.349L330.723 128.746C330.886 129.473 331.245 130.043 331.8 130.454C332.365 130.866 333.078 131.071 333.939 131.071C334.647 131.071 335.193 130.937 335.576 130.669C335.958 130.392 336.15 130.009 336.15 129.521C336.15 129.215 336.073 128.971 335.92 128.789C335.767 128.597 335.423 128.411 334.887 128.229C334.36 128.047 333.537 127.808 332.417 127.511C331.154 127.186 330.144 126.822 329.388 126.42C328.632 126.018 328.087 125.539 327.752 124.984C327.417 124.42 327.249 123.74 327.249 122.946C327.249 121.95 327.503 121.089 328.01 120.362C328.517 119.625 329.23 119.06 330.149 118.668C331.077 118.266 332.168 118.065 333.422 118.065C334.638 118.065 335.714 118.251 336.652 118.625C337.59 118.998 338.346 119.529 338.921 120.218C339.504 120.907 339.863 121.721 339.997 122.659L336.006 123.376C335.939 122.802 335.69 122.348 335.26 122.013C334.829 121.678 334.245 121.481 333.508 121.424C332.791 121.376 332.212 121.472 331.771 121.711C331.341 121.95 331.125 122.295 331.125 122.745C331.125 123.013 331.216 123.238 331.398 123.42C331.589 123.601 331.977 123.788 332.561 123.979C333.154 124.171 334.054 124.42 335.26 124.726C336.437 125.032 337.38 125.391 338.088 125.803C338.806 126.205 339.327 126.693 339.653 127.267C339.978 127.832 340.141 128.516 340.141 129.32C340.141 130.909 339.567 132.158 338.418 133.067C337.27 133.976 335.681 134.431 333.652 134.431Z" stroke="#00FF86" stroke-width="0.8" mask="url(#path-9-outside-1_42_7)"/>
<path d="M354.815 134.459C353.599 134.459 352.609 134.254 351.843 133.842C351.078 133.431 350.479 132.909 350.049 132.277C349.628 131.646 349.326 130.99 349.144 130.311C348.962 129.621 348.852 128.995 348.814 128.43C348.776 127.865 348.757 127.454 348.757 127.195V118.495H352.719V125.817C352.719 126.171 352.738 126.626 352.776 127.181C352.815 127.726 352.934 128.277 353.135 128.832C353.336 129.387 353.662 129.851 354.111 130.224C354.571 130.598 355.217 130.784 356.05 130.784C356.385 130.784 356.743 130.732 357.126 130.626C357.509 130.521 357.868 130.32 358.203 130.023C358.538 129.717 358.811 129.272 359.021 128.688C359.241 128.095 359.351 127.32 359.351 126.363L361.591 127.425C361.591 128.65 361.342 129.798 360.844 130.87C360.347 131.942 359.596 132.808 358.591 133.469C357.595 134.129 356.337 134.459 354.815 134.459ZM359.84 134V128.861H359.351V118.495H363.285V134H359.84Z" stroke="#00FF86" stroke-width="0.8" mask="url(#path-9-outside-1_42_7)"/>
<path d="M374.906 134.431C373.365 134.431 372.078 134.072 371.044 133.354C370.011 132.636 369.231 131.66 368.704 130.425C368.187 129.191 367.929 127.798 367.929 126.248C367.929 124.697 368.187 123.305 368.704 122.07C369.221 120.835 369.982 119.859 370.987 119.141C371.992 118.424 373.231 118.065 374.705 118.065C376.189 118.065 377.481 118.419 378.581 119.127C379.682 119.835 380.534 120.807 381.137 122.041C381.749 123.266 382.055 124.669 382.055 126.248C382.055 127.798 381.754 129.191 381.151 130.425C380.558 131.66 379.725 132.636 378.653 133.354C377.581 134.072 376.332 134.431 374.906 134.431ZM367.269 140.891V118.495H370.714V129.119H371.202V140.891H367.269ZM374.274 130.957C375.117 130.957 375.806 130.746 376.342 130.325C376.878 129.904 377.275 129.339 377.533 128.631C377.792 127.913 377.921 127.119 377.921 126.248C377.921 125.386 377.787 124.602 377.519 123.893C377.251 123.175 376.835 122.606 376.27 122.185C375.715 121.754 375.002 121.539 374.131 121.539C373.317 121.539 372.657 121.735 372.15 122.127C371.652 122.52 371.288 123.07 371.059 123.778C370.829 124.487 370.714 125.31 370.714 126.248C370.714 127.186 370.829 128.009 371.059 128.717C371.288 129.425 371.662 129.976 372.178 130.368C372.705 130.76 373.404 130.957 374.274 130.957Z" stroke="#00FF86" stroke-width="0.8" mask="url(#path-9-outside-1_42_7)"/>
<path d="M392.192 134.431C390.632 134.431 389.263 134.081 388.086 133.383C386.909 132.684 385.99 131.722 385.329 130.497C384.679 129.263 384.353 127.846 384.353 126.248C384.353 124.63 384.688 123.209 385.358 121.984C386.028 120.749 386.952 119.787 388.129 119.098C389.306 118.409 390.66 118.065 392.192 118.065C393.752 118.065 395.12 118.414 396.297 119.113C397.484 119.811 398.408 120.778 399.068 122.013C399.729 123.238 400.059 124.649 400.059 126.248C400.059 127.856 399.724 129.277 399.054 130.511C398.393 131.737 397.47 132.698 396.283 133.397C395.106 134.086 393.742 134.431 392.192 134.431ZM392.192 130.784C393.445 130.784 394.379 130.363 394.991 129.521C395.613 128.669 395.924 127.578 395.924 126.248C395.924 124.87 395.608 123.769 394.977 122.946C394.355 122.123 393.426 121.711 392.192 121.711C391.34 121.711 390.641 121.903 390.096 122.285C389.55 122.668 389.143 123.199 388.875 123.879C388.617 124.558 388.488 125.348 388.488 126.248C388.488 127.635 388.799 128.741 389.421 129.564C390.053 130.378 390.976 130.784 392.192 130.784Z" stroke="#00FF86" stroke-width="0.8" mask="url(#path-9-outside-1_42_7)"/>
<path d="M413.782 134V126.678C413.782 126.324 413.763 125.874 413.725 125.329C413.686 124.774 413.567 124.219 413.366 123.664C413.165 123.108 412.834 122.644 412.375 122.271C411.925 121.898 411.284 121.711 410.451 121.711C410.116 121.711 409.757 121.764 409.375 121.869C408.992 121.974 408.633 122.18 408.298 122.486C407.963 122.783 407.685 123.223 407.465 123.807C407.255 124.391 407.149 125.166 407.149 126.133L404.91 125.071C404.91 123.845 405.159 122.697 405.656 121.625C406.154 120.553 406.901 119.687 407.896 119.027C408.901 118.366 410.164 118.036 411.686 118.036C412.901 118.036 413.892 118.242 414.658 118.653C415.423 119.065 416.017 119.586 416.438 120.218C416.869 120.85 417.175 121.51 417.357 122.199C417.538 122.879 417.649 123.501 417.687 124.066C417.725 124.63 417.744 125.042 417.744 125.3V134H413.782ZM403.187 134V118.495H406.661V123.635H407.149V134H403.187Z" stroke="#00FF86" stroke-width="0.8" mask="url(#path-9-outside-1_42_7)"/>
<path d="M435.027 134.431C433.496 134.431 432.113 134.163 430.878 133.627C429.653 133.081 428.644 132.306 427.849 131.301C427.064 130.287 426.567 129.081 426.356 127.683L430.433 127.08C430.72 128.267 431.314 129.181 432.213 129.822C433.113 130.464 434.137 130.784 435.286 130.784C435.927 130.784 436.549 130.684 437.152 130.483C437.755 130.282 438.248 129.985 438.631 129.593C439.023 129.2 439.219 128.717 439.219 128.143C439.219 127.932 439.186 127.731 439.119 127.54C439.061 127.339 438.961 127.152 438.817 126.98C438.674 126.808 438.468 126.645 438.2 126.492C437.942 126.339 437.611 126.2 437.209 126.075L431.84 124.496C431.438 124.381 430.969 124.219 430.433 124.008C429.907 123.798 429.395 123.496 428.897 123.104C428.4 122.711 427.983 122.194 427.648 121.553C427.323 120.902 427.16 120.084 427.16 119.098C427.16 117.711 427.509 116.557 428.208 115.639C428.907 114.72 429.84 114.035 431.008 113.586C432.175 113.136 433.467 112.916 434.884 112.925C436.31 112.944 437.583 113.188 438.702 113.657C439.822 114.126 440.76 114.811 441.516 115.71C442.272 116.6 442.818 117.691 443.153 118.983L438.932 119.701C438.779 119.031 438.497 118.467 438.085 118.007C437.674 117.548 437.181 117.199 436.606 116.959C436.042 116.72 435.448 116.591 434.826 116.572C434.214 116.553 433.635 116.639 433.089 116.83C432.553 117.012 432.113 117.28 431.768 117.634C431.433 117.988 431.266 118.409 431.266 118.897C431.266 119.347 431.405 119.716 431.682 120.003C431.96 120.28 432.309 120.505 432.73 120.678C433.151 120.85 433.582 120.993 434.022 121.108L437.611 122.084C438.147 122.228 438.741 122.419 439.392 122.659C440.042 122.888 440.664 123.214 441.258 123.635C441.861 124.046 442.354 124.592 442.737 125.271C443.129 125.951 443.325 126.812 443.325 127.856C443.325 128.966 443.091 129.937 442.622 130.77C442.162 131.593 441.54 132.277 440.755 132.823C439.971 133.359 439.081 133.761 438.085 134.029C437.099 134.297 436.08 134.431 435.027 134.431Z" stroke="#00FF86" stroke-width="0.8" mask="url(#path-9-outside-1_42_7)"/>
<path d="M446.768 116.342V112.896H450.673V116.342H446.768ZM446.768 134V118.495H450.673V134H446.768Z" stroke="#00FF86" stroke-width="0.8" mask="url(#path-9-outside-1_42_7)"/>
<path d="M461.609 141.322C460.729 141.322 459.891 141.178 459.097 140.891C458.302 140.613 457.589 140.221 456.958 139.714C456.336 139.216 455.828 138.632 455.436 137.962L459.054 136.211C459.302 136.67 459.657 137.02 460.116 137.259C460.585 137.498 461.092 137.618 461.638 137.618C462.222 137.618 462.772 137.517 463.289 137.316C463.806 137.125 464.217 136.833 464.523 136.441C464.839 136.058 464.988 135.579 464.968 135.005V130.497H465.457V118.495H468.873V135.062C468.873 135.445 468.854 135.804 468.816 136.139C468.787 136.484 468.73 136.823 468.644 137.158C468.395 138.106 467.931 138.886 467.251 139.498C466.581 140.111 465.758 140.566 464.782 140.862C463.806 141.169 462.748 141.322 461.609 141.322ZM461.264 134.431C459.838 134.431 458.589 134.072 457.518 133.354C456.446 132.636 455.608 131.66 455.005 130.425C454.412 129.191 454.115 127.798 454.115 126.248C454.115 124.669 454.417 123.266 455.02 122.041C455.632 120.807 456.489 119.835 457.589 119.127C458.69 118.419 459.982 118.065 461.465 118.065C462.939 118.065 464.179 118.424 465.184 119.141C466.189 119.859 466.95 120.835 467.466 122.07C467.983 123.305 468.242 124.697 468.242 126.248C468.242 127.798 467.978 129.191 467.452 130.425C466.935 131.66 466.16 132.636 465.126 133.354C464.093 134.072 462.805 134.431 461.264 134.431ZM461.896 130.957C462.767 130.957 463.461 130.76 463.978 130.368C464.504 129.976 464.882 129.425 465.112 128.717C465.342 128.009 465.457 127.186 465.457 126.248C465.457 125.31 465.342 124.487 465.112 123.778C464.882 123.07 464.514 122.52 464.007 122.127C463.509 121.735 462.853 121.539 462.04 121.539C461.169 121.539 460.451 121.754 459.886 122.185C459.331 122.606 458.92 123.175 458.652 123.893C458.384 124.602 458.25 125.386 458.25 126.248C458.25 127.119 458.379 127.913 458.637 128.631C458.896 129.339 459.293 129.904 459.829 130.325C460.365 130.746 461.054 130.957 461.896 130.957Z" stroke="#00FF86" stroke-width="0.8" mask="url(#path-9-outside-1_42_7)"/>
<path d="M483.46 134V126.678C483.46 126.324 483.441 125.874 483.402 125.329C483.364 124.774 483.244 124.219 483.043 123.664C482.842 123.108 482.512 122.644 482.053 122.271C481.603 121.898 480.962 121.711 480.129 121.711C479.794 121.711 479.435 121.764 479.052 121.869C478.67 121.974 478.311 122.18 477.976 122.486C477.641 122.783 477.363 123.223 477.143 123.807C476.933 124.391 476.827 125.166 476.827 126.133L474.588 125.071C474.588 123.845 474.837 122.697 475.334 121.625C475.832 120.553 476.578 119.687 477.574 119.027C478.579 118.366 479.842 118.036 481.364 118.036C482.579 118.036 483.57 118.242 484.336 118.653C485.101 119.065 485.695 119.586 486.116 120.218C486.546 120.85 486.853 121.51 487.034 122.199C487.216 122.879 487.326 123.501 487.365 124.066C487.403 124.63 487.422 125.042 487.422 125.3V134H483.46ZM472.865 134V118.495H476.339V123.635H476.827V134H472.865Z" stroke="#00FF86" stroke-width="0.8" mask="url(#path-9-outside-1_42_7)"/>
<path d="M505.308 134.431C503.643 134.431 502.178 134.096 500.915 133.426C499.652 132.746 498.666 131.794 497.958 130.569C497.249 129.344 496.895 127.903 496.895 126.248V113.356L500.858 113.327V126.219C500.858 126.899 500.973 127.516 501.202 128.071C501.432 128.626 501.748 129.105 502.15 129.507C502.561 129.909 503.035 130.22 503.571 130.44C504.117 130.65 504.696 130.756 505.308 130.756C505.94 130.756 506.524 130.645 507.06 130.425C507.605 130.205 508.079 129.894 508.481 129.492C508.883 129.09 509.194 128.612 509.414 128.057C509.644 127.501 509.758 126.889 509.758 126.219V113.327H513.721V126.248C513.721 127.903 513.367 129.344 512.658 130.569C511.95 131.794 510.964 132.746 509.701 133.426C508.438 134.096 506.973 134.431 505.308 134.431Z" stroke="#00FF86" stroke-width="0.8" mask="url(#path-9-outside-1_42_7)"/>
<path d="M525.337 134.431C523.796 134.431 522.509 134.072 521.476 133.354C520.442 132.636 519.662 131.66 519.136 130.425C518.619 129.191 518.36 127.798 518.36 126.248C518.36 124.697 518.619 123.305 519.136 122.07C519.652 120.835 520.413 119.859 521.418 119.141C522.423 118.424 523.662 118.065 525.136 118.065C526.62 118.065 527.912 118.419 529.013 119.127C530.113 119.835 530.965 120.807 531.568 122.041C532.18 123.266 532.487 124.669 532.487 126.248C532.487 127.798 532.185 129.191 531.582 130.425C530.989 131.66 530.156 132.636 529.084 133.354C528.012 134.072 526.763 134.431 525.337 134.431ZM517.7 140.891V118.495H521.145V129.119H521.633V140.891H517.7ZM524.706 130.957C525.548 130.957 526.237 130.746 526.773 130.325C527.309 129.904 527.706 129.339 527.965 128.631C528.223 127.913 528.352 127.119 528.352 126.248C528.352 125.386 528.218 124.602 527.95 123.893C527.682 123.175 527.266 122.606 526.701 122.185C526.146 121.754 525.433 121.539 524.562 121.539C523.749 121.539 523.088 121.735 522.581 122.127C522.083 122.52 521.72 123.07 521.49 123.778C521.26 124.487 521.145 125.31 521.145 126.248C521.145 127.186 521.26 128.009 521.49 128.717C521.72 129.425 522.093 129.976 522.61 130.368C523.136 130.76 523.835 130.957 524.706 130.957Z" stroke="#00FF86" stroke-width="0.8" mask="url(#path-9-outside-1_42_7)"/>
<defs>
<filter id="filter0_df_42_7" x="-215.978" y="20.0215" width="484.957" height="484.957" filterUnits="userSpaceOnUse" color-interpolation-filters="sRGB">
<feFlood flood-opacity="0" result="BackgroundImageFix"/>
<feColorMatrix in="SourceAlpha" type="matrix" values="0 0 0 0 0 0 0 0 0 0 0 0 0 0 0 0 0 0 127 0" result="hardAlpha"/>
<feOffset/>
<feGaussianBlur stdDeviation="31.9892"/>
<feComposite in2="hardAlpha" operator="out"/>
<feColorMatrix type="matrix" values="0 0 0 0 0 0 0 0 0 1 0 0 0 0 0.52549 0 0 0 1 0"/>
<feBlend mode="normal" in2="BackgroundImageFix" result="effect1_dropShadow_42_7"/>
<feBlend mode="normal" in="SourceGraphic" in2="effect1_dropShadow_42_7" result="shape"/>
<feGaussianBlur stdDeviation="31.9892" result="effect2_foregroundBlur_42_7"/>
</filter>
<filter id="filter1_df_42_7" x="354.022" y="-13.9785" width="484.957" height="484.957" filterUnits="userSpaceOnUse" color-interpolation-filters="sRGB">
<feFlood flood-opacity="0" result="BackgroundImageFix"/>
<feColorMatrix in="SourceAlpha" type="matrix" values="0 0 0 0 0 0 0 0 0 0 0 0 0 0 0 0 0 0 127 0" result="hardAlpha"/>
<feOffset/>
<feGaussianBlur stdDeviation="31.9892"/>
<feComposite in2="hardAlpha" operator="out"/>
<feColorMatrix type="matrix" values="0 0 0 0 0 0 0 0 0 1 0 0 0 0 0.52549 0 0 0 1 0"/>
<feBlend mode="normal" in2="BackgroundImageFix" result="effect1_dropShadow_42_7"/>
<feBlend mode="normal" in="SourceGraphic" in2="effect1_dropShadow_42_7" result="shape"/>
<feGaussianBlur stdDeviation="31.9892" result="effect2_foregroundBlur_42_7"/>
</filter>
<filter id="filter2_b_42_7" x="256" y="-338" width="438" height="432" filterUnits="userSpaceOnUse" color-interpolation-filters="sRGB">
<feFlood flood-opacity="0" result="BackgroundImageFix"/>
<feGaussianBlur in="BackgroundImage" stdDeviation="2"/>
<feComposite in2="SourceAlpha" operator="in" result="effect1_backgroundBlur_42_7"/>
<feBlend mode="normal" in="SourceGraphic" in2="effect1_backgroundBlur_42_7" result="shape"/>
</filter>
<filter id="filter3_b_42_7" x="-583.591" y="-487.591" width="1686.18" height="1525.04" filterUnits="userSpaceOnUse" color-interpolation-filters="sRGB">
<feFlood flood-opacity="0" result="BackgroundImageFix"/>
<feGaussianBlur in="BackgroundImage" stdDeviation="192.796"/>
<feComposite in2="SourceAlpha" operator="in" result="effect1_backgroundBlur_42_7"/>
<feBlend mode="normal" in="SourceGraphic" in2="effect1_backgroundBlur_42_7" result="shape"/>
</filter>
<filter id="filter4_d_42_7" x="-327.438" y="67.2546" width="434.049" height="444.492" filterUnits="userSpaceOnUse" color-interpolation-filters="sRGB">
<feFlood flood-opacity="0" result="BackgroundImageFix"/>
<feColorMatrix in="SourceAlpha" type="matrix" values="0 0 0 0 0 0 0 0 0 0 0 0 0 0 0 0 0 0 127 0" result="hardAlpha"/>
<feOffset/>
<feGaussianBlur stdDeviation="10"/>
<feColorMatrix type="matrix" values="0 0 0 0 0 0 0 0 0 1 0 0 0 0 0.52549 0 0 0 1 0"/>
<feBlend mode="normal" in2="BackgroundImageFix" result="effect1_dropShadow_42_7"/>
<feBlend mode="normal" in="SourceGraphic" in2="effect1_dropShadow_42_7" result="shape"/>
</filter>
<filter id="filter5_d_42_7" x="312.562" y="-356.745" width="434.049" height="444.492" filterUnits="userSpaceOnUse" color-interpolation-filters="sRGB">
<feFlood flood-opacity="0" result="BackgroundImageFix"/>
<feColorMatrix in="SourceAlpha" type="matrix" values="0 0 0 0 0 0 0 0 0 0 0 0 0 0 0 0 0 0 127 0" result="hardAlpha"/>
<feOffset/>
<feGaussianBlur stdDeviation="10"/>
<feColorMatrix type="matrix" values="0 0 0 0 0 0 0 0 0 1 0 0 0 0 0.52549 0 0 0 1 0"/>
<feBlend mode="normal" in2="BackgroundImageFix" result="effect1_dropShadow_42_7"/>
<feBlend mode="normal" in="SourceGraphic" in2="effect1_dropShadow_42_7" result="shape"/>
</filter>
<linearGradient id="paint0_linear_42_7" x1="429.903" y1="-55.6008" x2="2208.17" y2="466.294" gradientUnits="userSpaceOnUse">
<stop stop-color="#0A1119"/>
<stop offset="1" stop-color="#0A1119" stop-opacity="0"/>
</linearGradient>
<clipPath id="clip0_42_7">
<rect width="693" height="178" rx="10" fill="white"/>
</clipPath>
</defs>
</svg>
