<svg width="329" height="43" viewBox="0 0 329 43" fill="none" xmlns="http://www.w3.org/2000/svg">
<path d="M46.518 21.3944C46.4222 15.2837 51.3096 10.1145 58.3335 10.2103C60.1317 10.2103 61.6707 10.4301 62.9672 10.9037C64.292 11.3434 65.2672 11.7549 65.8647 12.1326V15.7854C65.2954 15.3119 64.3822 14.8102 63.0913 14.2747C61.8003 13.7053 60.2219 13.4235 58.3335 13.4235C53.136 13.4235 50.0807 16.9185 50.0807 21.3944C50.0807 25.8365 53.2601 29.3653 57.7698 29.3653C60.2614 29.3653 62.3077 28.3901 63.5648 27.443V22.8093H57.1666V19.5961H66.9978V32.105H63.5648V31.0001C62.302 31.7893 60.2896 32.5729 57.7698 32.5729C51.1461 32.5785 46.4222 27.5051 46.518 21.3944Z" fill="white"/>
<path d="M69.7036 23.9728C69.7036 19.215 73.2325 15.3423 78.2101 15.3423C80.572 15.3423 82.5563 16.2555 83.6894 17.3886V15.8158H87.0604V32.1015H83.6274L83.6612 30.4329C82.5901 31.5378 80.8595 32.575 78.2101 32.575C73.2325 32.575 69.7036 28.7305 69.7036 23.9728ZM83.881 23.9446C83.881 20.4157 81.4852 18.3694 78.4637 18.3694C75.4084 18.3694 73.1084 20.861 73.1084 23.9446C73.1084 27.0337 75.4084 29.5535 78.4637 29.5535C81.4852 29.5535 83.881 27.5016 83.881 23.9446Z" fill="white"/>
<path d="M116.108 22.0871V32.1044H112.704V22.431C112.704 19.8154 111.756 18.3328 109.524 18.3328C107.478 18.3328 105.426 19.8774 105.426 22.9327V32.0987H102.021V22.4254C102.021 19.8097 101.074 18.3272 98.8418 18.3272C96.9533 18.3272 95.0311 19.6519 94.7774 22.2957V32.0931H91.3726V15.8074H94.7774V17.7635C94.9691 17.3238 96.0683 15.3057 99.3435 15.3057C101.643 15.3057 103.442 16.2189 104.479 17.9833C105.234 16.5684 106.937 15.3057 110.026 15.3057C113.684 15.3113 116.108 17.6113 116.108 22.0871Z" fill="white"/>
<path d="M118.63 23.9752C118.63 19.2174 122.159 15.3447 127.137 15.3447C129.499 15.3447 131.483 16.2579 132.616 17.391V10.711L136.021 10.1416V32.0983H132.554L132.588 30.4297C131.517 31.5346 129.786 32.5718 127.137 32.5718C122.159 32.5774 118.63 28.7329 118.63 23.9752ZM132.808 23.947C132.808 20.4181 130.412 18.3718 127.391 18.3718C124.335 18.3718 121.939 20.8635 121.939 23.947C121.939 27.0361 124.335 29.5559 127.391 29.5559C130.412 29.5559 132.808 27.504 132.808 23.947Z" fill="white"/>
<path d="M138.854 23.9728C138.854 19.215 142.823 15.3423 147.772 15.3423C152.716 15.3423 156.69 19.215 156.69 23.9728C156.69 28.7305 152.721 32.575 147.772 32.575C142.823 32.575 138.854 28.7305 138.854 23.9728ZM153.409 23.9728C153.409 20.8836 150.985 18.3976 147.772 18.3976C144.559 18.3976 142.135 20.8892 142.135 23.9728C142.135 27.0281 144.559 29.5197 147.772 29.5197C150.985 29.5197 153.409 27.0337 153.409 23.9728Z" fill="white"/>
<path d="M184.44 22.0874V32.1046H181.035V22.4313C181.035 19.8156 180.088 18.3331 177.856 18.3331C175.81 18.3331 173.758 19.8776 173.758 22.933V32.099H170.353V22.4256C170.353 19.81 169.406 18.3274 167.174 18.3274C165.285 18.3274 163.363 19.6521 163.109 22.296V32.0933H159.71V15.8076H163.115V17.7637C163.306 17.324 164.406 15.3059 167.681 15.3059C169.981 15.3059 171.779 16.2191 172.816 17.9836C173.572 16.5686 175.274 15.3059 178.363 15.3059C182.016 15.3115 184.44 17.6115 184.44 22.0874Z" fill="white"/>
<path d="M17.1087 26.7439H17.103V37.3699H17.1087V26.7439Z" fill="#01D370"/>
<path d="M17.1087 26.7439H17.103V37.3699H17.1087V26.7439Z" fill="#01D370"/>
<path d="M16.2362 21.3091L5.60455 26.3375C5.28887 26.4897 5.08594 26.8166 5.08594 27.1717V36.9353C5.08594 37.2961 5.28887 37.6174 5.60455 37.7696L16.2419 42.8036C16.5124 42.9332 16.8056 42.9952 17.0987 42.9952V21.1118C16.8056 21.1175 16.5124 21.1851 16.2362 21.3091Z" fill="#00FF86"/>
<path d="M16.6296 0.112741L11.6407 2.58181V9.21673L5.80062 12.0804V5.38911L0.569353 7.98784C0.21985 8.16259 0 8.51772 0 8.90105V21.6861C0 22.4358 0.794837 22.9319 1.46566 22.5993L16.1955 15.3725C16.483 15.2316 16.7931 15.1639 17.1031 15.1639V0C16.9396 0 16.7761 0.0394583 16.6296 0.112741Z" fill="#00FF86"/>
<path d="M28.6033 26.3366L17.966 21.3082C17.6898 21.1729 17.3966 21.1109 17.1035 21.1166V43C17.3966 43 17.7011 42.938 17.9716 42.8083L28.6033 37.7743C28.919 37.6221 29.1219 37.2952 29.1219 36.94V27.1765C29.1219 26.8157 28.919 26.4888 28.6033 26.3366Z" fill="#01D370"/>
<path d="M33.6429 7.98684L28.4116 5.38812V12.085L22.5659 9.22138V2.58645L17.577 0.11738C17.4305 0.044097 17.2614 0.00463867 17.1035 0.00463867V15.1686C17.4136 15.1686 17.7236 15.2418 18.0111 15.3771L32.741 22.604C33.4174 22.9365 34.2066 22.4405 34.2066 21.6907V8.90569C34.2123 8.51673 33.9924 8.16159 33.6429 7.98684Z" fill="#01D370"/>
<rect x="205" width="2" height="41" rx="1" fill="white"/>
<path d="M247.311 32L247.281 11.1557H244.839L236.263 25.8063L227.568 11.1557H225.127V32H227.985V16.9027L235.519 29.4689H236.889L244.423 16.8134L244.452 32H247.311ZM254.579 13.1805C255.711 13.1805 256.515 12.3468 256.515 11.2748C256.515 10.2623 255.681 9.45833 254.579 9.45833C253.477 9.45833 252.644 10.2921 252.644 11.3343C252.644 12.3765 253.477 13.1805 254.579 13.1805ZM253.15 32H256.008V16.2179H253.15V32ZM264.206 18.8681V16.2179H261.467V32H264.325V24.1387C264.325 20.6845 266.231 18.8085 269.298 18.8085C269.506 18.8085 269.715 18.8085 269.953 18.8383V16.069C267.184 16.069 265.219 17.0219 264.206 18.8681ZM276.216 18.8681V16.2179H273.476V32H276.335V24.1387C276.335 20.6845 278.241 18.8085 281.308 18.8085C281.516 18.8085 281.725 18.8085 281.963 18.8383V16.069C279.194 16.069 277.228 17.0219 276.216 18.8681ZM292.1 32.1787C296.835 32.1787 300.289 28.8138 300.289 24.1089C300.289 19.4041 296.835 16.069 292.1 16.069C287.366 16.069 283.882 19.4041 283.882 24.1089C283.882 28.8138 287.366 32.1787 292.1 32.1787ZM292.1 29.6773C289.063 29.6773 286.77 27.4738 286.77 24.1089C286.77 20.7441 289.063 18.5703 292.1 18.5703C295.138 18.5703 297.401 20.7441 297.401 24.1089C297.401 27.4738 295.138 29.6773 292.1 29.6773ZM306.982 18.8681V16.2179H304.243V32H307.101V24.1387C307.101 20.6845 309.007 18.8085 312.074 18.8085C312.283 18.8085 312.491 18.8085 312.729 18.8383V16.069C309.96 16.069 307.995 17.0219 306.982 18.8681ZM320.895 32.1787C325.094 32.1787 327.714 30.3622 327.714 27.5036C327.714 21.3694 317.709 24.4067 317.709 20.6845C317.709 19.4338 318.93 18.5107 321.431 18.5107C322.98 18.5107 324.558 18.8383 325.987 19.7614L327.208 17.4983C325.838 16.605 323.516 16.069 321.461 16.069C317.411 16.069 314.88 17.9747 314.88 20.8036C314.88 27.0867 324.856 24.0196 324.856 27.5631C324.856 28.9031 323.754 29.7071 321.104 29.7071C319.049 29.7071 316.905 29.0222 315.565 28.0694L314.374 30.3325C315.684 31.3747 318.275 32.1787 320.895 32.1787Z" fill="white"/>
</svg>
